/* XPM */
static char *_3ee65fd14e94324cbddf98b2c6fabeaDHlfhWIYBG2m7ZWx[] = {
/* columns rows colors chars-per-pixel */
"16 16 2 1 ",
". c white",
"X c black",
/* pixels */
"................",
".XXXXXXXXXXXXXX.",
".XXXXXXXXXXXXXX.",
".XXXXXXXXXXXXXX.",
".XXXXXXXXXXXXXX.",
".XXXXXXXXXXXXXX.",
".XXXXXXXXXXXXXX.",
".XXXXXXXXXXXXXX.",
".XXXXXXXXXXXXXX.",
".XXXXXXXXXXXXXX.",
".XXXXXXXXXXXXXX.",
".XXXXXXXXXXXXXX.",
".XXXXXXXXXXXXXX.",
".XXXXXXXXXXXXXX.",
".XXXXXXXXXXXXXX.",
"................"
};
